<svg xmlns="http://www.w3.org/2000/svg" version="1.1" xmlns:xlink="http://www.w3.org/1999/xlink" xmlns:svgjs="http://svgjs.dev/svgjs" width="250" height="250"><svg width="250" height="250" viewBox="0 0 250 250" fill="none" xmlns="http://www.w3.org/2000/svg">
<rect width="250" height="250" rx="55" fill="#3A63ED"></rect>
<path d="M90.6203 54.7933C88.5667 54.2777 86.2761 54 84.1041 54C81.7346 54.0397 79.523 54.357 76.6007 55.1503C74.3101 55.7453 71.8221 56.5782 71.0718 56.9352C70.3215 57.3318 69.0972 58.2045 68.3864 58.9184C67.636 59.5927 66.6882 60.862 66.2538 61.7346C65.7404 62.7659 65.464 64.0749 65.464 65.5028C65.5034 66.6927 65.7799 68.3587 66.0958 69.152C66.4513 69.9849 67.3201 71.2939 68.0309 72.0872C68.7023 72.9201 72.2171 75.9743 75.8108 78.9095C77.5501 80.3493 79.1969 81.7054 80.4692 82.7531L80.4697 82.7536C81.8259 83.8704 82.7563 84.6366 82.9193 84.7799C83.3932 85.2162 84.6965 84.9782 90.3438 83.4313C94.0955 82.4 97.1364 81.4877 97.1364 81.3687C97.0969 81.2497 93.1872 77.9575 88.4087 74.0307C83.6302 70.1039 79.7205 66.8117 79.7205 66.6927C79.76 66.5737 80.6683 66.2961 81.8136 66.0184C83.1958 65.7011 84.657 65.6615 86.0787 65.8598C87.2634 66.0581 89.0406 66.5341 90.0279 66.9704C91.0152 67.4067 95.9911 71.2145 101.086 75.419C106.18 79.6235 110.406 83.1536 110.485 83.3123C110.524 83.4313 101.481 86.0095 90.3438 88.9844C79.2071 91.9989 69.6501 94.7754 69.0972 95.1721C68.5443 95.5687 67.7545 96.6 67.3596 97.4726C67.0921 97.9965 66.9152 98.343 66.8335 98.7108C66.6739 99.429 66.8773 100.229 67.478 102.589C67.9914 104.573 68.7418 106.913 69.1367 107.825C69.5711 108.817 70.4399 109.848 71.1903 110.324C71.8616 110.76 73.0069 111.117 73.6388 111.117C74.2706 111.117 97.7288 104.969 125.768 97.3933C153.807 89.857 176.989 83.5503 177.305 83.352C177.621 83.1933 178.292 82.5983 178.766 82.0827C179.279 81.6067 179.793 80.5358 179.911 79.7821C180.069 78.8302 179.793 77.0453 179.082 74.2291C178.49 71.9285 177.7 69.6279 177.344 69.1123C176.989 68.5966 176.239 67.9223 175.646 67.6447C175.014 67.3274 173.948 67.0894 173.277 67.0894C172.566 67.0894 163.167 69.4296 152.425 72.2855C141.683 75.181 132.719 77.6402 132.561 77.7592C132.403 77.8782 133.508 79.0682 135.049 80.3771C136.628 81.686 137.971 83.114 138.089 83.5503C138.208 83.9866 138.168 84.8196 138.05 85.4542C137.892 86.1682 137.379 86.7235 136.549 87.0804C135.601 87.4771 134.97 87.5168 134.259 87.2391C133.706 87.0011 125.452 80.3771 115.895 72.5235C106.338 64.6302 97.4523 57.6095 96.1491 56.8955C94.8459 56.1816 92.3579 55.2693 90.6203 54.7933Z" fill="white"></path>
<path d="M143.579 156.415C144.606 157.366 146.422 159.469 147.607 161.095C148.831 162.721 150.687 165.656 151.675 167.64C152.701 169.623 153.965 172.637 154.518 174.383C155.071 176.128 155.742 178.904 156.019 180.531C156.453 183.188 156.453 183.625 155.861 184.577C155.308 185.489 154.952 185.687 153.926 185.568C153.017 185.528 152.504 185.211 152.149 184.497C151.912 183.942 151.398 181.919 151.043 179.936C150.687 177.953 149.858 175.017 149.266 173.391C148.634 171.765 147.212 168.988 146.146 167.243C145.04 165.498 143.026 162.721 141.604 161.095C139.906 159.151 138.998 157.763 138.958 157.049C138.919 156.335 139.195 155.78 139.827 155.344C140.326 155.035 140.974 154.764 141.264 154.749L141.258 154.749C141.255 154.749 141.252 154.749 141.249 154.749L141.282 154.749L141.288 154.749C141.286 154.749 141.284 154.749 141.282 154.749C141.276 154.749 141.27 154.749 141.264 154.749C141.562 154.775 142.609 155.518 143.579 156.415Z" fill="white"></path>
<path d="M72.7305 165.775C72.3355 165.379 71.6247 165.061 71.1113 165.061C70.5189 165.061 69.5711 165.775 68.3074 167.124C67.5553 167.935 65.978 169.714 64.2962 171.61C63.5936 172.402 62.8727 173.215 62.1861 173.986C59.3427 177.239 58 179.063 58 179.737C58 180.293 58.2764 181.046 58.6714 181.403C59.0663 181.8 59.7376 182.117 60.1721 182.117C60.6065 182.117 61.2383 181.919 61.5938 181.641C61.9887 181.364 64.7926 178.27 67.8335 174.779C71.8221 170.258 73.4018 168.155 73.4413 167.441C73.4413 166.886 73.1254 166.132 72.7305 165.775Z" fill="white"></path>
<path fill-rule="evenodd" clip-rule="evenodd" d="M176.396 93.8235C175.923 93.2682 174.856 92.6732 174.066 92.5145C172.842 92.2369 165.931 93.9821 127.466 104.335C102.626 111.038 81.7346 116.75 80.9842 117.067C80.2339 117.384 79.2861 118.217 78.8912 118.852C78.4963 119.487 78.1803 120.439 78.1803 120.915C78.1803 121.43 81.6556 129.006 85.9602 137.772C90.2253 146.578 94.0955 154.193 94.5299 154.709C95.0038 155.225 95.9516 155.899 96.623 156.177C97.3339 156.494 98.5976 156.732 99.3874 156.732C100.217 156.732 103.218 156.097 106.022 155.344C108.826 154.59 111.195 154.035 111.274 154.074C111.314 154.114 111.472 156.018 111.59 158.318C111.788 161.293 111.669 163.554 111.195 166.251C110.801 168.473 110.011 171.13 109.26 172.756C108.471 174.422 107.365 176.088 106.299 177.001C104.877 178.349 104.403 178.547 102.744 178.547C101.481 178.547 100.177 178.191 98.5186 177.397C97.2154 176.723 95.0433 175.255 93.7006 174.105C92.3579 172.955 90.0674 170.694 88.5667 169.107C86.7106 167.084 85.4468 166.093 84.499 165.815C83.6302 165.617 82.5639 165.617 81.6161 165.855C80.8263 166.093 79.7205 166.648 79.1676 167.124C78.6542 167.64 75.8898 172.042 73.0069 176.961C70.1635 181.879 67.5175 186.56 67.0831 187.353C66.6882 188.186 66.3328 189.535 66.3328 190.328C66.3328 191.161 66.6882 192.43 67.1226 193.104C67.557 193.818 68.5048 194.77 69.1762 195.207C69.887 195.643 71.1508 196 71.9406 196C72.7699 196 74.0732 195.683 74.9025 195.286C76.0873 194.731 76.8771 193.66 79.681 188.86C80.7064 187.069 81.7191 185.341 82.4566 184.083L82.457 184.083L82.4594 184.079L82.4608 184.076L82.4612 184.075C83.0278 183.109 83.4311 182.421 83.5512 182.197L84.1041 181.324C86.8685 183.783 88.8431 185.291 90.3043 186.242C91.805 187.194 94.214 188.464 95.7542 189.059C97.4128 189.693 99.6244 190.209 101.283 190.368C102.902 190.487 104.956 190.368 106.22 190.05C107.404 189.773 109.458 188.979 110.722 188.305C112.104 187.591 114.078 185.965 115.54 184.378C117.277 182.593 118.58 180.689 119.607 178.428C120.476 176.644 121.542 173.748 121.977 172.003C122.451 170.258 123.004 166.846 123.241 164.466C123.596 161.214 123.596 158.953 123.241 155.542C123.004 153.043 122.846 150.941 122.885 150.901C122.964 150.822 126.202 149.91 130.112 148.839L137.221 146.895C139.353 148.204 141.328 149.553 142.947 150.742C144.566 151.932 147.212 154.154 148.792 155.701C150.411 157.247 152.543 159.667 153.57 161.095C154.597 162.523 156.019 164.665 156.69 165.855C157.361 167.045 158.388 169.266 158.941 170.813C159.533 172.36 160.323 175.017 160.758 176.763C161.153 178.508 161.666 182.157 161.903 184.894C162.179 188.741 162.456 190.09 163.009 190.844C163.443 191.399 164.273 192.192 164.825 192.628C165.615 193.184 166.524 193.422 168.024 193.422C169.564 193.422 170.433 193.184 171.263 192.589C171.973 192.073 173.316 189.852 174.935 186.639C176.357 183.783 178.055 180.689 178.727 179.698C179.398 178.746 181.017 176.921 182.281 175.652C183.545 174.383 185.914 172.439 187.533 171.289C189.152 170.139 190.811 168.79 191.206 168.235C191.68 167.64 191.996 166.529 191.996 165.458C192.035 164.347 191.798 163.158 191.285 162.285C190.811 161.452 189.824 160.54 188.757 159.984C187.336 159.27 186.664 159.151 185.401 159.35C184.492 159.548 182.399 160.619 180.464 161.888C178.608 163.158 175.765 165.498 174.145 167.164L171.184 170.139C170.038 166.648 168.735 163.792 167.59 161.492C166.405 159.191 164.312 155.82 162.93 153.955C161.548 152.091 158.625 148.839 156.414 146.697C153.373 143.761 152.583 142.809 153.096 142.651C153.491 142.572 158.783 141.144 164.865 139.478C170.947 137.851 176.357 136.185 176.91 135.789C177.463 135.392 178.292 134.44 178.806 133.687C179.437 132.735 179.714 131.783 179.674 130.355C179.674 129.244 179.24 121.43 178.687 112.902C178.134 104.374 177.581 96.838 177.502 96.124C177.384 95.4497 176.91 94.4184 176.396 93.8235ZM98.1237 119.963C97.5313 120.478 96.86 121.311 96.6625 121.866C96.4256 122.62 96.9389 125.238 98.953 132.774C100.375 138.208 101.796 143.127 102.073 143.682C102.349 144.237 103.06 144.912 103.692 145.189C104.324 145.507 105.351 145.626 106.022 145.507C106.654 145.388 107.681 144.912 108.273 144.475C108.944 143.999 109.458 143.166 109.576 142.373C109.734 141.501 108.944 137.891 107.128 131.148C105.035 123.334 104.245 120.954 103.455 120.121C102.705 119.328 102.112 119.09 100.849 119.09C99.7692 119.09 98.8609 119.381 98.1237 119.963ZM115.856 116.789C115.974 116.313 116.566 115.48 117.159 114.925C117.949 114.172 118.62 113.934 120.002 113.934C121.384 113.934 122.016 114.132 122.727 114.806C123.359 115.48 124.307 118.336 126.4 126.23C129.164 136.503 129.204 136.78 128.572 138.01C128.177 138.843 127.387 139.557 126.439 139.954C125.255 140.469 124.702 140.509 123.477 140.152C122.53 139.874 121.819 139.319 121.463 138.605C121.147 138.01 119.726 133.052 118.265 127.618C116.724 121.827 115.737 117.345 115.856 116.789ZM138.01 108.817C137.339 109.015 136.51 109.491 136.115 109.888C135.72 110.245 135.325 111.117 135.207 111.752C135.088 112.506 135.996 116.551 137.813 123.255C139.314 128.927 140.814 133.806 141.091 134.083C141.328 134.361 142.078 134.758 142.749 134.996C143.579 135.273 144.408 135.234 145.514 134.877C146.738 134.48 147.252 134.004 147.765 132.854L148.476 131.386C143.618 113.061 142.749 110.364 142.078 109.689C141.565 109.213 140.735 108.737 140.182 108.618C139.63 108.539 138.642 108.618 138.01 108.817ZM155.031 105.247C155.387 104.771 156.216 104.097 156.927 103.779C157.598 103.462 158.704 103.303 159.336 103.422C160.007 103.541 160.916 104.057 161.39 104.533C162.021 105.168 162.969 107.984 164.865 115.004C166.287 120.32 167.432 125.317 167.432 126.111C167.432 127.182 167.195 127.896 166.563 128.491C166.05 129.006 165.141 129.522 164.47 129.72C163.838 129.918 162.693 129.918 162.021 129.72C161.311 129.561 160.481 129.006 160.165 128.491C159.849 128.015 158.428 123.215 157.006 117.781C155.584 112.387 154.4 107.587 154.4 107.072C154.4 106.596 154.676 105.763 155.031 105.247Z" fill="white"></path>
</svg><style>@media (prefers-color-scheme: light) { :root { filter: none; } }
@media (prefers-color-scheme: dark) { :root { filter: none; } }
</style></svg>